<svg width="167" height="167" viewBox="0 0 167 167" fill="none" xmlns="http://www.w3.org/2000/svg">
<path d="M69.7225 0L41.75 41.75H0V125.25H41.75L69.7225 167H83.5V0H69.7225ZM104.375 20.875V41.75C107.924 41.75 111.473 42.1675 114.812 43.0025C132.765 47.595 146.125 63.8775 146.125 83.5C146.125 103.122 132.974 119.405 114.812 123.998C111.473 124.833 107.924 125.25 104.375 125.25V146.125C109.594 146.125 114.395 145.29 119.405 144.246H120.031C147.169 137.357 167 112.725 167 83.5C167 54.275 147.169 29.6425 120.031 22.7538C115.23 21.5013 109.802 20.875 104.375 20.875ZM104.375 62.625V104.375C106.254 104.375 108.132 104.166 109.594 103.749C118.57 101.452 125.25 93.1025 125.25 83.5C125.25 73.8975 118.779 65.5475 109.594 63.2512C107.924 62.8337 106.045 62.625 104.375 62.625Z" fill="black"/>
</svg>
